<?xml version="1.0" encoding="utf-8"?>
<!DOCTYPE svg PUBLIC "-//W3C//DTD SVG 20010904//EN" "http://www.w3.org/TR/2001/REC-SVG-20010904/DTD/svg10.dtd">
<svg version="1.0" xmlns="http://www.w3.org/2000/svg" width="500px" height="500px" viewBox="0 0 500 500" preserveAspectRatio="xMidYMid meet">
 <g fill="#ffffff">
  <path d="M0 250 l0 -250 250 0 250 0 0 250 0 250 -250 0 -250 0 0 -250z m254.4 192.7 c26.7 -15.4 81.2 -46.9 118.6 -68.5 l46.5 -27 0 -97.2 0 -97.3 -28.5 -16.4 c-15.7 -9.1 -40 -23.2 -54 -31.3 -41.4 -24 -82.3 -47.6 -84.8 -48.9 -2.1 -1.1 -4 -0.2 -19.5 8.7 -24.9 14.4 -125 72.3 -139.7 80.8 l-12.5 7.2 0 97.2 0 97.2 12.5 7.2 c34.3 19.8 126.4 73.1 140.5 81.3 8.8 5.1 16.2 9.3 16.4 9.3 0.2 0 2.3 -1.1 4.5 -2.3z"/>
  <path d="M240.5 435.3 c-3.3 -2 -11.6 -6.8 -18.5 -10.8 -6.9 -4 -30.3 -17.5 -52 -30 -21.7 -12.6 -49.4 -28.6 -61.5 -35.6 l-22 -12.7 0 -96.2 0 -96.2 16 -9.3 c8.8 -5 38.1 -21.9 65 -37.5 27 -15.6 55.9 -32.3 64.3 -37.1 9.8 -5.7 16.5 -8.9 18.3 -8.9 1.9 0 8.8 3.4 19.2 9.3 41.4 23.8 122.4 70.7 133 76.9 l11.7 6.9 0 95.9 0 95.9 -8.2 4.9 c-4.6 2.7 -18.9 11 -31.8 18.4 -12.9 7.4 -38.1 22 -56 32.3 -64.4 37.3 -64.8 37.5 -68.2 37.5 -2 -0.1 -5.8 -1.6 -9.3 -3.7z m80.5 -206 c0 -1.1 -0.3 -1.4 -0.8 -0.7 -0.4 0.6 -1.4 1.4 -2.2 1.7 -1 0.4 -0.8 0.6 0.8 0.6 1.5 0.1 2.2 -0.5 2.2 -1.6z"/>
 </g>
 <g fill="#e2e2e0">
  <path d="M287 319 c0 -0.5 -0.7 -1 -1.5 -1 -1 0 -1.5 -1 -1.5 -3.4 0 -2.8 0.4 -3.5 2.5 -4 2.6 -0.7 6.5 0.8 6.5 2.4 0 2 -1.3 4 -2.6 4 -0.8 0 -1.4 0.7 -1.4 1.5 0 0.8 -0.4 1.5 -1 1.5 -0.5 0 -1 -0.4 -1 -1z"/>
  <path d="M221 313.6 c0 -3.1 0.3 -3.6 2.4 -3.6 1.4 0 2.8 0.5 3.1 1 0.3 0.6 -0.1 1 -0.9 1 -1.9 0 -2.1 1.6 -0.3 2.3 1.5 0.5 0.9 1.3 -2 2.1 -2.1 0.7 -2.3 0.4 -2.3 -2.8z"/>
  <path d="M240 313.6 c0 -3.1 0.3 -3.6 2.4 -3.6 1.4 0 2.8 0.5 3.1 1 0.3 0.6 -0.1 1 -0.9 1 -1.9 0 -2.1 1.6 -0.3 2.3 1.5 0.5 0.9 1.3 -2 2.1 -2.1 0.7 -2.3 0.4 -2.3 -2.8z"/>
  <path d="M278 313.6 c0 -3.2 0.3 -3.6 2.5 -3.6 2.6 0 3.4 1.5 1.3 2.3 -1 0.3 -1 0.7 0.1 2 0.7 1 0.9 1.7 0.3 1.7 -0.6 0 -1.7 0.3 -2.6 0.6 -1.3 0.5 -1.6 -0.1 -1.6 -3z"/>
  <path d="M229.6 312.6 c-2 -3.1 -2 -3.6 -0.1 -3.6 0.8 0 1.7 1.1 2.1 2.5 0.9 3.6 0 4 -2 1.1z"/>
  <path d="M268 312.1 c0 -2.7 3.4 -3.3 4.9 -0.9 1.4 2.3 0.5 3.9 -1 1.8 -0.8 -1.1 -1.2 -1.2 -1.6 -0.2 -0.7 1.9 -2.3 1.4 -2.3 -0.7z"/>
  <path d="M138 264.9 c0 -1.5 0.5 -1.9 1.5 -1.5 0.8 0.3 1.5 0.1 1.5 -0.4 0 -0.6 0.7 -1 1.5 -1 0.8 0 1.5 0.4 1.5 1 0 0.5 0.7 0.7 1.5 0.4 1 -0.4 1.5 0 1.5 1.5 0 1.8 -0.6 2.1 -4.5 2.1 -3.9 0 -4.5 -0.3 -4.5 -2.1z"/>
  <path d="M151.3 247.3 c-3.8 -0.5 -4.7 -3.7 -1.3 -4.6 1.1 -0.3 2 -0.1 2 0.5 0 0.6 1.3 0.8 3 0.6 1.7 -0.3 3 -0.1 3 0.4 0 0.4 0.7 0.8 1.5 0.8 0.8 0 1.5 0.7 1.5 1.5 0 1.5 -2.3 1.7 -9.7 0.8z"/>
  <path d="M206.3 237.5 c1.4 -2.8 3.2 -3.3 4.1 -0.9 1.1 2.8 0.7 3.4 -2.3 3.4 -2.7 0 -2.8 -0.1 -1.8 -2.5z"/>
 </g>
 <g fill="#75736c">
  <path d="M232 439.6 c-14.7 -8.6 -96.6 -56 -142 -82.2 l-12.5 -7.2 0 -100.2 0 -100.2 12.5 -7.2 c21.6 -12.5 123.7 -71.5 142.3 -82.3 l17.8 -10.3 33.2 19.2 c18.3 10.5 44.2 25.5 57.7 33.4 13.5 7.8 37.3 21.6 53 30.7 l28.5 16.4 0 100.3 0 100.2 -46.5 27 c-25.6 14.8 -55.7 32.3 -67 38.8 -11.3 6.5 -29.2 16.8 -39.7 22.9 -10.6 6.1 -19.4 11.1 -19.5 11 -0.2 0 -8.2 -4.7 -17.8 -10.3z m34.3 -12.9 c8.9 -5.2 30.8 -17.8 48.7 -28.2 17.9 -10.3 43.1 -24.9 56 -32.3 12.9 -7.4 27.2 -15.7 31.8 -18.4 l8.2 -4.9 0 -92.9 0 -92.9 -11.7 -6.9 c-10.6 -6.2 -91.6 -53 -133 -76.8 l-16.2 -9.4 -15.3 8.9 c-8.4 4.8 -37.3 21.5 -64.3 37.1 -26.9 15.6 -56.2 32.5 -65 37.5 l-16 9.3 0 93.2 0 93.2 22 12.7 c12.1 7 39.8 23 61.5 35.6 21.7 12.5 45.1 26 52 30 6.9 4 15.2 8.8 18.5 10.8 3.3 2 6.1 3.6 6.3 3.7 0.1 0 7.6 -4.2 16.5 -9.3z"/>
  <path d="M211.7 315.8 c-0.7 -5 0.3 -6.4 3.2 -4.8 3.1 1.6 2.7 8.3 -0.5 8.8 -1.8 0.3 -2.2 -0.3 -2.7 -4z m3.3 -0.8 c0 -1.6 -0.4 -3 -1 -3 -0.5 0 -1 1.4 -1 3 0 1.7 0.5 3 1 3 0.6 0 1 -1.3 1 -3z"/>
  <path d="M223 319 c0 -0.5 0.6 -1 1.4 -1 0.8 0 1.8 0.5 2.1 1 0.3 0.6 -0.3 1 -1.4 1 -1.2 0 -2.1 -0.4 -2.1 -1z"/>
  <path d="M242 319 c0 -0.5 0.6 -1 1.4 -1 0.8 0 1.8 0.5 2.1 1 0.3 0.6 -0.3 1 -1.4 1 -1.2 0 -2.1 -0.4 -2.1 -1z"/>
  <path d="M258.2 318.8 c-2.4 -2.4 -0.4 -8.8 2.7 -8.8 3.6 0 4.1 9.3 0.6 9.8 -1.1 0.1 -2.6 -0.3 -3.3 -1z m3.8 -3.2 c0 -1.4 -0.4 -2.7 -0.9 -3.1 -1.2 -0.7 -2.5 3.1 -1.6 4.5 1.1 1.8 2.5 1 2.5 -1.4z"/>
  <path d="M268.7 315.6 c-0.4 -2.7 -0.5 -5.2 -0.2 -5.4 0.3 -0.3 1.6 0 3 0.6 3 1.4 3.4 5.2 0.6 5.9 -1.1 0.3 -2.2 1.2 -2.3 2.2 -0.2 0.9 -0.7 -0.6 -1.1 -3.3z m3.3 -2.1 c0 -0.8 -0.4 -1.5 -1 -1.5 -0.5 0 -1 0.7 -1 1.5 0 0.8 0.5 1.5 1 1.5 0.6 0 1 -0.7 1 -1.5z"/>
  <path d="M290.4 318.6 c-0.3 -0.8 -1.2 -1.2 -2 -0.9 -1.1 0.4 -1.4 -0.5 -1.4 -3.6 0 -4.2 1 -5 4 -3.1 0.9 0.6 1.5 2.5 1.6 5 0 4 -1.1 5.3 -2.2 2.6z"/>
  <path d="M232 317 c0 -1.2 0.5 -1.8 1 -1.5 0.6 0.3 1 -0.5 1 -1.9 0 -2.5 1.5 -4.3 2.3 -2.9 0.8 1.3 -1.7 7.6 -3 8.1 -0.8 0.2 -1.3 -0.5 -1.3 -1.8z"/>
  <path d="M279 317.6 c0 -0.7 -0.3 -2.8 -0.6 -4.5 -0.6 -2.8 -0.4 -3.1 2 -3.1 1.4 0 2.6 0.5 2.6 1 0 0.6 -0.7 1 -1.5 1 -2 0 -1.9 1 0.3 2.6 1.6 1.3 1.6 1.3 0 1.4 -1 0 -1.8 0.4 -1.8 0.9 0 0.5 0.8 1.2 1.8 1.4 1.3 0.4 1.1 0.5 -0.5 0.6 -1.3 0.1 -2.3 -0.5 -2.3 -1.3z"/>
  <path d="M222.3 314.3 c-0.7 -0.2 -1.3 -1.3 -1.3 -2.4 0 -1.3 0.7 -1.9 2.4 -1.9 1.4 0 2.8 0.5 3.1 1 0.3 0.6 -0.3 1 -1.4 1 -2.6 0 -2.8 1.7 -0.3 2.3 1.1 0.3 1.2 0.5 0.2 0.5 -0.8 0 -2.1 -0.2 -2.7 -0.5z"/>
  <path d="M241.3 314.3 c-0.7 -0.2 -1.3 -1.3 -1.3 -2.4 0 -1.3 0.7 -1.9 2.4 -1.9 1.4 0 2.8 0.5 3.1 1 0.3 0.6 -0.3 1 -1.4 1 -2.6 0 -2.8 1.7 -0.3 2.3 1.1 0.3 1.2 0.5 0.2 0.5 -0.8 0 -2.1 -0.2 -2.7 -0.5z"/>
  <path d="M249 311.9 c0 -1.1 0.5 -1.7 1 -1.4 0.6 0.3 1 1.3 1 2.1 0 0.8 -0.4 1.4 -1 1.4 -0.5 0 -1 -0.9 -1 -2.1z"/>
  <path d="M133.8 266.5 c-0.8 -1.9 -0.8 -2.8 0.2 -4 2.1 -2.5 3 -1.7 3 2.5 0 4.5 -1.5 5.2 -3.2 1.5z"/>
  <path d="M148 268 c0 -0.5 -1.3 -1 -3 -1 -4.1 0 -3.9 -2.6 0.2 -3.5 1.9 -0.5 3.4 -0.3 3.5 0.2 0.2 0.6 2.3 0.8 4.8 0.5 5.5 -0.6 6.1 1.2 1 3.4 -4 1.6 -6.5 1.8 -6.5 0.4z"/>
  <path d="M173.4 264.5 c-3 -3 -3.2 -6.5 -0.4 -6.5 1.6 0 2 -0.7 2 -3.5 0 -3.1 0.3 -3.5 2.5 -3.5 1.4 0 2.5 0.3 2.5 0.6 0 1.2 -3.4 6.4 -4.2 6.4 -0.4 0 -0.8 1.1 -0.8 2.5 0 2 0.5 2.5 2.5 2.5 3.1 0 3.4 2.5 0.4 3.3 -1.4 0.4 -2.9 -0.2 -4.5 -1.8z"/>
  <path d="M159 263.5 c0 -0.8 -0.9 -1.5 -2 -1.5 -1.1 0 -2 -0.4 -2 -1 0 -0.5 0.4 -1 0.8 -1 0.4 0 2.3 -1.3 4.2 -2.9 2.9 -2.4 3.3 -3.1 2.2 -4.4 -0.7 -0.8 -3.8 -1.8 -7 -2.2 -8.4 -1 -10.2 -1.5 -10.2 -3.2 0 -1.2 1.2 -1.4 7.5 -0.8 5.2 0.5 7.5 0.4 7.5 -0.4 0 -2.8 8.6 2.9 9 6 0.6 4.3 0.1 5 -3.5 4.3 -3.1 -0.5 -3.5 -0.4 -3.5 1.5 0 1.5 0.6 2.1 2.3 2.1 2.1 0.1 2.1 0.1 -0.6 2.5 -3.2 2.9 -4.7 3.2 -4.7 1z"/>
  <path d="M188.7 263.2 c-1 -1 -1.7 -2.4 -1.7 -3.2 0 -1 -0.3 -1 -1.5 0 -1.2 1 -1.5 1 -1.5 -0.4 0 -1.2 0.9 -1.6 3.5 -1.6 2.4 0 3.5 0.5 3.5 1.5 0 1 1.1 1.5 3.5 1.5 3.9 0 4.3 0.6 1.8 2.6 -2.5 1.9 -5.7 1.7 -7.6 -0.4z"/>
  <path d="M222.2 260.8 c-1.9 -1.9 -1.4 -2.8 1.8 -2.8 3.2 0 4.2 2.3 1.4 3.4 -2 0.8 -1.8 0.8 -3.2 -0.6z"/>
  <path d="M243.7 257.2 c-2.3 -2.6 -2.2 -5.2 0.3 -5.2 1.1 0 2 0.7 2 1.5 0 1 1 1.5 3 1.5 2.9 0 4.2 -1.4 1.9 -2.2 -0.5 -0.2 0.6 -2.1 2.5 -4.3 l3.5 -4 0.1 2.8 c0 1.5 0.5 2.7 1 2.7 0.6 0 1 0.9 1 2 0 1.6 0.7 2 3.5 2 3.8 0 5 2.4 1.6 3.3 -2.6 0.6 -6.1 -1.9 -6.1 -4.4 0 -1.5 -0.7 -1.2 -4.1 2.1 -4.5 4.4 -7.7 5 -10.2 2.2z"/>
  <path d="M232 254.8 c0 -1 -0.4 -1.8 -1 -1.8 -0.5 0 0.8 -2.8 3.1 -6.2 2.2 -3.4 4.2 -7.2 4.5 -8.5 0.4 -1.3 1 -2.3 1.5 -2.3 0.5 0 0.9 -0.7 0.9 -1.6 0 -0.9 0.7 -1.4 1.8 -1.2 1.2 0.3 1.6 1.2 1.5 3.3 -0.1 1.7 -0.7 3.1 -1.3 3.3 -0.5 0.2 -1 1 -1 1.8 0 0.8 -0.4 1.4 -1 1.4 -0.5 0 -1 0.9 -1 2 0 1.1 -0.4 2 -1 2 -0.5 0 -1 0.6 -1 1.3 0 0.7 -1.3 2.8 -3 4.7 -2.2 2.6 -2.9 3 -3 1.8z"/>
  <path d="M186 252.3 c0 -0.5 0.9 -2.1 2 -3.8 2.4 -3.6 2.5 -4.9 0.5 -4.1 -1 0.3 -1.5 -0.1 -1.5 -1.3 0 -1.4 1 -2 4.7 -2.5 2.5 -0.3 4.9 -0.4 5.1 -0.1 1.1 1.1 -1.4 6 -3.6 7 -1.3 0.6 -2.2 1.9 -2.2 3.2 0 1.8 -0.6 2.3 -2.5 2.3 -1.4 0 -2.5 -0.3 -2.5 -0.7z"/>
  <path d="M200 250.5 c0 -1.4 3.2 -6.5 4 -6.5 0.6 0 1 1.6 1 3.5 0 3.1 -0.3 3.5 -2.5 3.5 -1.4 0 -2.5 -0.2 -2.5 -0.5z"/>
  <path d="M305.2 249.3 c3.8 -7.7 5.3 -10.3 6 -10.3 0.4 0 0.8 0.7 0.8 1.5 0 0.8 0.7 1.5 1.5 1.5 0.8 0 1.5 0.2 1.5 0.5 0 1.6 -3.1 6.3 -4.5 6.9 -2.3 0.8 -5.7 0.8 -5.3 -0.1z"/>
  <path d="M215.4 247.6 c-0.8 -2.2 -0.1 -2.8 2.6 -2.4 l2.2 0.3 -2.1 1.9 c-1.9 1.7 -2.1 1.7 -2.7 0.2z"/>
  <path d="M346.8 248.3 c-3.4 -0.8 -2 -3.3 1.7 -3.3 1.9 0 3.5 0.4 3.5 1 0 1.3 -3.2 2.7 -5.2 2.3z"/>
  <path d="M226 245.1 c0 -2.3 -0.5 -3 -2.1 -3.3 -2.1 -0.3 -2.1 -0.4 0.9 -3.5 3.8 -4.2 5.6 -4.3 5 -0.3 -0.2 1.6 -0.1 3.1 0.3 3.2 1.1 0.4 -1.8 6.8 -3.1 6.8 -0.5 0 -1 -1.3 -1 -2.9z"/>
  <path d="M247 244.5 c0 -3.2 0.2 -3.5 3 -3.5 l3 0 -2.2 3.5 c-2.9 4.4 -3.8 4.4 -3.8 0z"/>
  <path d="M271.8 247.1 l-2.7 -0.6 1.9 -4.2 c1.9 -4.2 4 -5.7 4 -2.9 0 0.8 1.1 1.6 2.5 1.8 l2.6 0.3 -2.8 3.1 c-2.3 2.5 -3.3 3 -5.5 2.5z"/>
  <path d="M362.9 245.3 c-1.1 -1.3 -1.1 -1.7 -0.1 -2 0.6 -0.3 1.2 -2 1.2 -3.9 0 -2 0.5 -3.4 1.3 -3.4 0.8 0 0.8 -0.3 -0.2 -0.9 -1.2 -0.8 -1.3 -1.4 -0.3 -3.7 2.1 -4.5 0.7 -3.7 -3.7 2.1 -2.3 3 -4.4 5.5 -4.6 5.5 -0.3 0 -0.5 -1.6 -0.5 -3.5 0 -2.4 0.5 -3.5 1.5 -3.5 0.8 0 1.5 -0.6 1.5 -1.3 0 -0.8 1.6 -3.1 3.6 -5.3 1.9 -2.1 3.3 -3.3 2.9 -2.6 -0.4 0.8 0.2 1.2 1.9 1.2 2.1 0 2.5 0.5 2.8 3.3 0.2 1.7 -0.4 5.4 -1.4 8.2 -1.7 5.2 -1.5 7 0.8 6.1 0.9 -0.3 1.4 0.2 1.4 1.4 0 1.1 -0.7 2 -1.5 2 -0.8 0 -1.5 0.5 -1.5 1 0 1.6 -3.6 1.1 -5.1 -0.7z"/>
  <path d="M206 243.1 c0 -4.3 1 -6.1 3.2 -6.1 1.5 0 1.9 0.5 1.5 2 -0.5 1.8 -0.3 1.8 2.7 -0.4 4.4 -3.3 6.3 -3.7 8.1 -2 1.1 1.2 1.2 2 0.5 3.5 -1.3 2.3 -3 2.5 -3 0.4 0 -0.8 -0.4 -1.5 -1 -1.5 -0.5 0 -1 0.5 -1 1 0 2 -5.5 5.9 -8.2 6 -2.4 0 -2.8 -0.4 -2.8 -2.9z"/>
  <path d="M261 244.1 c0 -1.1 -0.5 -2.1 -1.1 -2.3 -0.9 -0.3 -0.9 -1 0.1 -2.7 1.1 -2.2 1.1 -2.3 -0.9 -1.8 -1.7 0.4 -2.1 0.1 -2.1 -2 0 -2.1 0.4 -2.4 2.8 -2.2 1.5 0.1 3.5 -0.2 4.5 -0.6 3.5 -1.5 4 1 1.5 7.4 -2.2 5.9 -4.8 8.1 -4.8 4.2z"/>
  <path d="M335.8 243.2 c-3.7 -2.2 -3.5 -3.2 0.7 -3.2 3.1 0 3.5 0.3 3.5 2.5 0 2.9 -0.6 3 -4.2 0.7z"/>
  <path d="M138.5 243 c-0.9 -1.5 0.6 -6 2.1 -6 0.9 0 1.4 1.2 1.4 3.5 0 3.4 -2 4.9 -3.5 2.5z"/>
  <path d="M374 239.8 c0 -3.5 1.6 -5.6 3.1 -4.1 1 1 1 1.8 0.1 3.8 -1.4 3.1 -3.2 3.3 -3.2 0.3z"/>
  <path d="M285.9 239.3 c-0.1 -1 0 -2.5 0.1 -3.2 0.1 -1.3 -0.1 -1.3 -1.4 -0.2 -1.4 1.2 -1.6 1 -1.6 -1.2 0 -3.1 0.3 -3.3 5.8 -4.2 5 -0.8 5.4 0.3 2.2 6.5 -2.1 4.1 -4.9 5.3 -5.1 2.3z"/>
  <path d="M313.8 237.8 c0 -1.8 -0.1 -3.9 -0.1 -4.5 0.1 -0.7 -0.5 -1.3 -1.3 -1.3 -0.8 0 -1.4 -0.4 -1.4 -0.9 0 -1.3 2.9 -4.1 4.3 -4.1 0.7 0 2.6 -2.6 4.4 -5.8 l3.2 -5.7 0.1 4.8 c0 4.6 0.1 4.7 3 4.7 3.7 0 3.9 1.2 0.5 3 l-2.6 1.4 2.3 1.3 c2.2 1.2 2.2 1.2 -0.9 1.3 -2.9 0 -3.3 -0.3 -3.4 -2.7 0 -1.6 -0.3 -2.2 -0.6 -1.5 -0.2 0.6 -1.8 1.2 -3.4 1.2 -2.4 0 -2.9 0.4 -2.9 2.5 0 1.8 0.5 2.5 2 2.5 2.4 0 2.4 0.3 0.5 4 -2 3.9 -3.5 3.8 -3.7 -0.2z"/>
  <path d="M251.3 236.5 c3.6 -3.2 4.7 -3.1 4.7 0 0 2.2 -0.4 2.5 -3.7 2.5 l-3.8 -0.1 2.8 -2.4z"/>
  <path d="M145.5 234 l-4 -0.5 3.3 -2.5 c2.5 -2 4.1 -2.5 7.2 -2.2 2.2 0.2 4 0.7 4 1.1 0 0.3 -1.5 1.5 -3.3 2.6 -2.3 1.5 -4.3 1.9 -7.2 1.5z"/>
  <path d="M276 232.2 c0 -1.4 2.4 -3.2 4.3 -3.2 1.3 0 1.7 0.5 1.3 1.6 -0.3 0.9 -0.6 1.8 -0.6 2 0 0.2 -1.1 0.4 -2.5 0.4 -1.4 0 -2.5 -0.4 -2.5 -0.8z"/>
  <path d="M165.4 228.3 c0.5 -1.2 0.1 -1.4 -1.4 -1 -1.1 0.3 -2 0.1 -2 -0.4 0 -0.5 1.3 -0.9 2.9 -0.9 4.2 0 6.1 -1 6.1 -3.1 0 -1.9 1.6 -2.4 4.4 -1.3 2.3 0.9 2 4.1 -0.6 5.8 -1.3 0.7 -4 1.6 -6.1 1.9 -3.3 0.5 -3.8 0.3 -3.3 -1z"/>
  <path d="M356.3 228 l-2.1 -0.5 2.5 -6 c3 -7.2 3.5 -7.8 6.2 -7.3 2 0.3 2 0.5 -1.2 7.3 -2.8 6.2 -3.5 7 -5.4 6.5z"/>
  <path d="M330 223 c0 -1.1 -0.5 -2 -1.2 -2 -0.6 0 1.4 -1.9 4.6 -4.3 4.9 -3.6 6.2 -4.2 9.6 -3.9 2.2 0.2 3.7 0.8 3.4 1.3 -0.8 1.3 -14.5 10.9 -15.6 10.9 -0.4 0 -0.8 -0.9 -0.8 -2z"/>
  <path d="M324 217.5 c0 -1.9 0.5 -3.5 1 -3.5 0.6 0 1 -0.9 1 -2 0 -1.5 0.7 -2 2.5 -2 3.1 0 3.1 -0.1 0 6 -3 5.9 -4.5 6.4 -4.5 1.5z"/>
  <path d="M314.7 216.3 c-0.4 -0.3 -0.7 -1.5 -0.7 -2.6 0 -1.7 0.5 -1.9 3.1 -1.3 1.7 0.3 3.8 0.6 4.7 0.6 1.3 0 1.2 0.3 -0.3 2 -1.8 1.9 -5.5 2.7 -6.8 1.3z"/>
  <path d="M365 203.4 c0 -1.3 2.1 -4.2 3.5 -4.8 1.1 -0.4 1.5 0.2 1.5 2.4 0 2.5 -0.4 3 -2.5 3 -1.4 0 -2.5 -0.3 -2.5 -0.6z"/>
 </g>
 <g fill="#48453c">
  <path d="M211 315.5 c0 -4.5 0.1 -4.6 2.8 -4.3 2.4 0.3 2.7 0.7 2.7 4.3 0 3.6 -0.3 4 -2.7 4.3 -2.7 0.3 -2.8 0.2 -2.8 -4.3z m4.1 1.2 c-0.1 -0.4 -0.1 -1.6 -0.1 -2.7 0 -1.1 -0.4 -2 -1 -2 -0.5 0 -1 1.4 -1 3.1 0 1.7 0.5 2.9 1.1 2.7 0.6 -0.2 1 -0.7 1 -1.1z"/>
  <path d="M221 315.5 c0 -4.3 0.1 -4.5 2.8 -4.4 1.6 0.1 2 0.3 1 0.6 -2.2 0.5 -2.4 2.3 -0.3 2.3 0.8 0 1.5 0.5 1.5 1 0 0.6 -0.7 1 -1.5 1 -0.8 0 -1.5 0.5 -1.5 1 0 0.6 0.7 1 1.5 1 0.8 0 1.5 0.5 1.5 1 0 0.6 -1.1 1 -2.5 1 -2.3 0 -2.5 -0.4 -2.5 -4.5z"/>
  <path d="M231.1 316.3 c-1.3 -4.7 -1.3 -5.3 -0.1 -5.3 0.6 0 1 0.9 1 1.9 0 1.1 0.5 2.3 1 2.6 0.6 0.4 1 -0.5 1 -1.9 0 -1.6 0.6 -2.6 1.4 -2.6 1.3 0 1.3 0.6 -0.1 4.5 -0.8 2.5 -1.9 4.5 -2.3 4.5 -0.5 0 -1.4 -1.7 -1.9 -3.7z"/>
  <path d="M240 315.5 c0 -4.3 0.1 -4.5 2.8 -4.4 1.6 0.1 2 0.3 1 0.6 -2.2 0.5 -2.4 2.3 -0.3 2.3 0.8 0 1.5 0.5 1.5 1 0 0.6 -0.7 1 -1.5 1 -0.8 0 -1.5 0.5 -1.5 1 0 0.6 0.7 1 1.5 1 0.8 0 1.5 0.5 1.5 1 0 0.6 -1.1 1 -2.5 1 -2.3 0 -2.5 -0.4 -2.5 -4.5z"/>
  <path d="M249 315.5 c0 -2.5 0.5 -4.5 1 -4.5 0.6 0 1 1.6 1 3.5 0 2.4 0.5 3.5 1.5 3.5 0.8 0 1.5 0.5 1.5 1 0 0.6 -1.1 1 -2.5 1 -2.3 0 -2.5 -0.4 -2.5 -4.5z"/>
  <path d="M258.1 318.6 c-1.5 -1.8 -0.6 -7.2 1.4 -7.9 2.5 -1 4.7 1.7 4.3 5.3 -0.2 2.7 -0.8 3.6 -2.4 3.8 -1.1 0.2 -2.6 -0.4 -3.3 -1.2z m3.9 -3.7 c0 -2 -0.4 -2.9 -1.2 -2.7 -1.5 0.5 -2.2 3.3 -1.4 5.4 0.9 2.4 2.6 0.6 2.6 -2.7z"/>
  <path d="M268 315.4 c0 -4.4 0.1 -4.5 2.8 -4.2 3.4 0.4 4.4 4.3 1.3 5.3 -1.2 0.3 -2.1 1.3 -2.1 2.1 0 0.8 -0.4 1.4 -1 1.4 -0.5 0 -1 -2.1 -1 -4.6z m4 -1.9 c0 -0.8 -0.4 -1.5 -1 -1.5 -0.5 0 -1 0.7 -1 1.5 0 0.8 0.5 1.5 1 1.5 0.6 0 1 -0.7 1 -1.5z"/>
  <path d="M278 315.5 c0 -4.3 0.1 -4.5 2.8 -4.4 1.6 0.1 2 0.3 1 0.6 -2.1 0.5 -2.3 1.9 -0.5 2.7 1 0.5 1 0.7 0 1.2 -1.8 0.8 -1.6 2.4 0.2 2.4 0.8 0 1.5 0.5 1.5 1 0 0.6 -1.1 1 -2.5 1 -2.3 0 -2.5 -0.4 -2.5 -4.5z"/>
  <path d="M287 315.4 c0 -4.4 0.1 -4.5 2.8 -4.2 2.5 0.3 2.7 0.7 2.7 4.5 0 4.6 -0.8 5.4 -2.4 2.6 -1 -1.7 -1 -1.7 -1.1 0 0 0.9 -0.4 1.7 -1 1.7 -0.5 0 -1 -2.1 -1 -4.6z"/>
  <path d="M135.9 268.8 c-2.4 -2 -2.9 -4.4 -1.4 -6.5 1.3 -1.6 1.6 -1.6 2.4 -0.3 2.5 3.7 17.9 0.3 23.8 -5.2 4.4 -4.1 3.1 -5.3 -7.7 -6.8 -8.6 -1.2 -11.5 -2.4 -13.4 -5.2 -3.6 -5.6 2.6 -13.6 15 -19.5 8.5 -4 17.7 -5.4 20.8 -3 3.6 2.7 0.2 6 -7 6.8 -1.9 0.3 -2.8 0 -2.6 -0.9 0.3 -1.8 -1.7 -1.5 -7.8 1.4 -5.7 2.6 -13 8.8 -13 11.1 0 1.2 5.8 3.3 9.2 3.3 2.8 0 11.1 3.1 13 4.8 1.1 0.9 1.8 2.9 1.8 5 0 7.2 -12.4 14.8 -25.5 15.9 -4.1 0.3 -6.5 0.1 -7.6 -0.9z"/>
  <path d="M173.3 264.8 c-1.9 -2.5 -2.3 -5.1 -1.3 -8.8 1 -3.9 7.7 -12.2 11.3 -14.1 2.5 -1.4 13.7 -2.2 13.7 -1 0 0.5 -1.1 3.9 -2.5 7.5 -2.5 6.5 -3.2 11.6 -1.7 11.6 2.1 -0.1 4.1 -2.8 8.7 -12.2 3.9 -8 5.5 -10.4 7.3 -10.6 2.5 -0.4 2.6 -0.3 1.1 3.5 -1 2.7 -0.9 2.6 2.7 -1 2.6 -2.6 4.6 -3.7 6.7 -3.7 2.8 0 2.9 0.2 2.4 3.4 l-0.5 3.4 3.5 -3.9 c3.6 -4 6 -4.9 6.9 -2.6 0.3 0.8 -0.9 4.9 -2.6 9.3 -4 10.6 -3.8 11.8 1.3 6.3 5.3 -5.7 9 -12.8 8.5 -16.4 -0.4 -3.8 2.7 -5.8 4.7 -3.1 2.5 3.4 -0.9 11.3 -8.9 21 -9.9 12 -17 9.7 -12.1 -3.9 0.8 -2.2 1.5 -4.1 1.5 -4.1 0 -0.1 -0.7 -0.5 -1.6 -0.8 -1.1 -0.4 -2.2 0.1 -3.1 1.4 -2.2 3.2 -4.6 2.6 -4.1 -1 l0.5 -3.1 -3.1 3 c-1.7 1.7 -5.3 6.3 -8.1 10.4 -4 5.9 -5.7 7.6 -8.7 8.5 -5.2 1.7 -5.6 1.6 -7.6 -1.8 l-1.9 -3 -3.3 3.5 c-3.5 3.6 -7.9 4.6 -9.7 2.3z m8.4 -8 c5.5 -5.8 9.8 -12.8 7.8 -12.8 -3.3 0 -11.2 9 -13 14.8 -1 3.3 0.6 2.7 5.2 -2z"/>
  <path d="M243.4 256.5 c-3.4 -5.2 0.7 -14.7 8.9 -20.6 3.4 -2.5 4.9 -3 7.9 -2.6 2 0.3 4.1 0 4.7 -0.6 0.8 -0.8 1.4 -0.8 2.1 -0.1 0.7 0.7 0.4 2.6 -1 6 -1.2 2.7 -2.4 7.1 -2.7 9.8 -0.6 4.8 -0.6 4.8 1.6 3.6 1.4 -0.7 4.1 -5.1 7.1 -11.5 3.4 -7.3 5.5 -10.5 7 -11 2.9 -0.9 3.3 -0.3 2 3 -1 2.7 -1 2.7 3 -0.9 4.4 -4 8.2 -4.5 8.8 -1.3 0.5 2.4 -3.6 10.7 -5.3 10.7 -1.9 0 -2.7 -2.8 -1.5 -5.3 1.8 -3.7 -7.8 7.4 -12.1 14 -3.7 5.7 -4.4 6.3 -8.5 6.9 -5 0.7 -7.4 -0.6 -7.4 -4 -0.1 -2 -0.1 -2 -2.1 0.4 -2.7 3.2 -6.9 6 -9.1 6 -1 0 -2.5 -1.1 -3.4 -2.5z m12.6 -11.3 c5.8 -7.8 6.4 -10 2.3 -7.8 -5.2 2.7 -11.3 11.1 -11.3 15.6 0 2.3 4.3 -1.4 9 -7.8z"/>
  <path d="M304.7 252.4 c-0.3 -0.4 1.6 -5 4.3 -10.4 3.9 -7.7 4.6 -9.9 3.5 -10.4 -2.1 -0.8 -0.7 -3.5 2.2 -4.2 1.7 -0.5 3.3 -2.4 5.3 -6.5 3.6 -7 3.6 -7.5 0.8 -5.5 -3.3 2.3 -5.7 2 -6.4 -0.8 -0.8 -3.1 0.3 -4.8 2.5 -4.1 1 0.3 3.7 -0.9 6.7 -3 9 -6.4 11.3 -4.1 6 6.1 -2 3.7 -3.6 7.2 -3.6 7.7 0 1.1 7.3 -4 17.6 -12.4 6.9 -5.7 9.1 -7 11 -6.5 1.3 0.4 2.4 1 2.4 1.5 0 1.8 -11.5 11.4 -22 18.3 l-10.8 7.2 11.1 6.3 c6.2 3.5 11.8 6.3 12.5 6.3 0.7 0 1.5 -0.8 1.9 -1.7 2.1 -6.3 10.2 -26.1 13.4 -33 2.5 -5.3 4.6 -8.4 6 -8.8 1.1 -0.4 2.3 -0.4 2.6 -0.1 0.4 0.3 -2.1 6.3 -5.5 13.3 -9.2 19.2 -9.3 19.8 -3.3 13.5 5 -5.2 8.6 -6.6 9.8 -3.7 0.3 0.9 -0.9 5.4 -2.6 10.1 -1.7 4.7 -3.1 9 -3.1 9.5 0 2 3 0.7 6 -2.7 2.3 -2.7 3.4 -3.3 4 -2.4 1.2 2 0 4.8 -3.2 7.5 -3.7 3.1 -7 4 -9.7 2.5 -2.8 -1.5 -2.7 -5.9 0.3 -13.3 2.1 -5.1 2.2 -5.6 0.6 -4.2 -1 0.9 -4.6 5.7 -8.1 10.6 -7.9 11.4 -8.2 11.4 -24.4 1.9 -6.6 -3.8 -12.3 -7 -12.6 -7 -0.3 0 -2.5 3.8 -4.8 8.5 -3 6.2 -4.9 8.9 -6.7 9.5 -3 1.2 -2.9 1.2 -3.7 0.4z"/>
 </g>
</svg>